# xmcd
#
# Track frame offsets:
#	150
#	20571
#	40164
#	54587
#	68369
#	93457
#	110874
#	126785
#	141381
#	159174
#	176362
#	189746
#
# Disc length: 2729 seconds
#
# Revision: 1
# Processed by: cddbd v1.5.2PL0 Copyright (c) Steve Scherf et al.
# Submitted via: audiograbber 1.82.02
#
DISCID=a20aa70c
DTITLE=T-Bone Burnett - Proof Through the Night
DYEAR=1983
DGENRE=Rock
TTITLE0=The Murder Weapon
TTITLE1=Fatally Beautiful
TTITLE2=After All These Years
TTITLE3=Baby Fall Down
TTITLE4=The Sixties
TTITLE5=Stunned
TTITLE6=Pressure
TTITLE7=Hula Hoop
TTITLE8=When the Night Falls
TTITLE9=Hefner and Disney
TTITLE10=Shut It Tight
TTITLE11=Be Careful of Stones You That You Throw
EXTD=
EXTT0=
EXTT1=
EXTT2=
EXTT3=
EXTT4=
EXTT5=
EXTT6=
EXTT7=
EXTT8=
EXTT9=
EXTT10=
EXTT11=
PLAYORDER=
